<svg xmlns="http://www.w3.org/2000/svg" viewBox="0 0 34 35.259" width="150" height="150">
  <path d="M 16.267 18.346 C 16.535 18.521 16.564 18.776 16.564 19.045 C 16.565 21.456 16.568 23.868 16.569 26.28 C 16.571 29.139 16.57 31.998 16.571 34.857 C 16.571 35.255 16.572 35.256 16.175 35.256 C 15.752 35.256 15.33 35.249 14.907 35.259 C 14.702 35.264 14.625 35.202 14.607 34.977 C 14.499 33.598 14.497 32.208 14.198 30.847 C 13.991 29.899 13.704 28.979 13.325 28.09 C 12.521 26.209 11.388 24.565 9.847 23.228 C 8.313 21.897 6.544 21.081 4.56 20.699 C 3.316 20.459 2.06 20.463 0.809 20.374 C 0.681 20.365 0.553 20.355 0.426 20.338 C 0 20.282 0.001 20.28 0.001 19.837 C 0.001 19.446 0 19.055 0 18.663 C 0 18.286 0.001 18.285 0.385 18.285 C 5.5 18.283 10.615 18.284 15.729 18.287 C 15.903 18.287 16.079 18.264 16.267 18.346 Z M 17.436 11.369 C 17.436 7.709 17.436 4.077 17.436 0.444 C 17.436 0.004 17.439 0.004 17.876 0.004 C 18.28 0.004 18.685 0.014 19.088 0 C 19.315 -0.007 19.376 0.078 19.393 0.305 C 19.499 1.713 19.498 3.132 19.822 4.517 C 20.506 7.438 21.848 9.976 24.089 11.976 C 25.604 13.328 27.376 14.154 29.356 14.551 C 30.634 14.808 31.928 14.813 33.218 14.888 C 33.337 14.895 33.455 14.913 33.573 14.92 C 34.055 14.952 33.996 14.979 33.998 15.431 C 33.999 15.822 33.999 16.213 34 16.604 C 34.001 16.975 34.001 16.976 33.647 16.976 C 31.699 16.976 29.752 16.976 27.805 16.976 C 24.618 16.976 21.431 16.975 18.244 16.974 C 17.582 16.973 17.441 16.829 17.44 16.148 C 17.437 14.564 17.437 12.981 17.436 11.369 Z" fill="rgb(0,0,0)"/>
</svg>
